<?xml version="1.0" encoding="UTF-8"?>
<svg version="1.1" xmlns="http://www.w3.org/2000/svg" width="209" height="768">
<path d="M0 0 C2 2 2 2 2 5 C6.29 5 10.58 5 15 5 C15.66 3.35 16.32 1.7 17 0 C23.11386163 -0.39873011 28.26298451 0.87884293 34 3 C35 4 35 4 35.0625 7.0625 C35.041875 8.031875 35.02125 9.00125 35 10 C35.99 10.495 35.99 10.495 37 11 C37.825 11.70125 38.65 12.4025 39.5 13.125 C43.3798856 15.20351014 43.79124976 15.04428271 47.8125 14.1875 C51.36491701 13.637657 52.57595715 13.72565618 55.64453125 15.7109375 C61.87460279 21.61724154 61.87460279 21.61724154 62.2890625 26.1875 C62 29 62 29 61.25 30.9375 C60.81972269 34.48728777 63.18212564 37.0252965 65 40 C65 40.66 65 41.32 65 42 C65.928125 41.773125 66.85625 41.54625 67.8125 41.3125 C71 41 71 41 72.5859375 42.078125 C74.53715089 44.73005038 75.07538057 47.23847431 75.8125 50.4375 C76.08707031 51.57058594 76.36164063 52.70367187 76.64453125 53.87109375 C77.0143959 57.12671553 76.80111489 58.33434996 75 61 C73.68 61 72.36 61 71 61 C71 65.29 71 69.58 71 74 C72.32 74.33 73.64 74.66 75 75 C77.01463369 78.14858465 77.07096743 79.65209644 76.3203125 83.33203125 C75.92585937 84.48058594 75.53140625 85.62914062 75.125 86.8125 C74.73570312 87.97394531 74.34640625 89.13539063 73.9453125 90.33203125 C73.47738281 91.65267578 73.47738281 91.65267578 73 93 C71.865625 93.12375 70.73125 93.2475 69.5625 93.375 C67.7990625 93.684375 67.7990625 93.684375 66 94 C65.67 94.66 65.34 95.32 65 96 C58.69298552 94.76600041 54.05379079 89.45774428 50.06591797 84.64306641 C48.4346505 82.12853822 48.422007 80.24782974 48.75 77.3125 C49.13602868 75.53473633 49.55124287 73.76297443 50 72 C51.20048739 59.56638056 46.92070598 48.86244289 39.546875 39.0703125 C32.2860054 30.81932431 21.40255055 26.75333212 10.734375 25.796875 C-0.55458443 25.53020667 -11.7755234 29.5602104 -20.29296875 37.00390625 C-30.03360312 47.21969351 -32.57741409 58.50884803 -32.33984375 72.11328125 C-31.82856102 83.15571523 -26.03384973 92.27360758 -18.16015625 99.74609375 C-9.33626307 106.98204705 1.86374551 109.75543643 13.11328125 108.7109375 C18.84090057 107.8692699 23.82246562 106.58876719 29 104 C28.67 103.01 28.34 102.02 28 101 C27.34 100.67 26.68 100.34 26 100 C26 99.34 26 98.68 26 98 C25.34 98 24.68 98 24 98 C24 97.34 24 96.68 24 96 C22.515 95.505 22.515 95.505 21 95 C21 94.34 21 93.68 21 93 C20.03320312 93.04640625 19.06640625 93.0928125 18.0703125 93.140625 C8.84762515 93.39630346 0.905353 93.35939466 -6.31640625 86.94140625 C-12.49414431 80.38792025 -14.21029287 75.24799411 -14.265625 66.3671875 C-13.98148731 63.83501929 -13.27118442 62.18926206 -12 60 C-9.05392494 61.30782967 -7.20119774 62.62559797 -5.1171875 65.07421875 C0.47266173 71.90670971 0.47266173 71.90670971 8.07421875 75.6328125 C11.10048291 75.36495142 11.10048291 75.36495142 15 74 C15.33 70.04 15.66 66.08 16 62 C14.68 61.34 13.36 60.68 12 60 C9.25 57.5 9.25 57.5 7 55 C7 54.34 7 53.68 7 53 C6.34 53 5.68 53 5 53 C5 52.34 5 51.68 5 51 C4.01 50.67 3.02 50.34 2 50 C2.33 48.35 2.66 46.7 3 45 C11.74816891 44.44001764 19.06694314 44.07771734 26 50 C29.62979978 53.88851121 32.40080389 57.89936869 34 63 C33.78995703 65.30477251 33.53552282 67.60570031 33.25 69.90234375 C32.99356702 74.70008519 33.5724114 77.9437563 36.6171875 81.74658203 C40.17026645 85.61114981 44.06728562 89.09215292 48 92.5625 C50.01011416 94.38398528 52.00836581 96.21602086 53.99169922 98.06663513 C55.22083476 99.20862259 56.46680935 100.33282355 57.73095703 101.43592834 C60.51766936 103.97970949 61.91391446 105.43403791 62.49047852 109.22460938 C61.66830426 113.87691248 58.7963035 116.12489795 55.46875 119.2734375 C52.89711495 121.07195442 51.97861633 121.52365289 48.9375 121.0625 C47.968125 120.711875 46.99875 120.36125 46 120 C46 119.34 46 118.68 46 118 C45.37351562 118.433125 44.74703125 118.86625 44.1015625 119.3125 C43.28429687 119.869375 42.46703125 120.42625 41.625 121 C40.81289062 121.556875 40.00078125 122.11375 39.1640625 122.6875 C37 124 37 124 35 124 C35.020625 124.94875 35.04125 125.8975 35.0625 126.875 C35 130 35 130 34 132 C28.66411675 134.22839569 22.76064174 135.94051294 17 135 C15.0625 132.5 15.0625 132.5 14 130 C12.2282281 130.06016203 10.45741321 130.14899328 8.6875 130.25 C7.70136719 130.29640625 6.71523437 130.3428125 5.69921875 130.390625 C2.33782017 131.14949357 1.97950959 132.32310221 0 135 C-5.83644078 135.72445331 -11.97555529 133.88638313 -17 131 C-18 129 -18 129 -18 127 C-17.505 125.515 -17.505 125.515 -17 124 C-17.70125 123.731875 -18.4025 123.46375 -19.125 123.1875 C-22.1649824 121.9318551 -25.0727774 120.49764877 -28 119 C-28.99 119.99 -28.99 119.99 -30 121 C-32.29296875 121.41796875 -32.29296875 121.41796875 -35 121 C-37.67578125 118.98828125 -37.67578125 118.98828125 -40.3125 116.3125 C-41.19550781 115.44238281 -42.07851563 114.57226562 -42.98828125 113.67578125 C-45 111 -45 111 -45.41796875 108.35546875 C-45 106 -45 106 -43 103 C-43.3609375 102.44570313 -43.721875 101.89140625 -44.09375 101.3203125 C-44.5578125 100.59585938 -45.021875 99.87140625 -45.5 99.125 C-45.9640625 98.40570313 -46.428125 97.68640625 -46.90625 96.9453125 C-48 95 -48 95 -48 93 C-50.97 93.495 -50.97 93.495 -54 94 C-57.75321743 88.37017386 -59.47326308 82.78343751 -59 76 C-58.505 75.01 -58.505 75.01 -58 74 C-56.35 74 -54.7 74 -53 74 C-53 69.71 -53 65.42 -53 61 C-54.65 60.67 -56.3 60.34 -58 60 C-59 59 -59 59 -59.25 56 C-59.18397983 50.68537648 -57.80793348 44.80793348 -54 41 C-51.375 40.875 -51.375 40.875 -49 41 C-48.67 40.34 -48.34 39.68 -48 39 C-47.34 39 -46.68 39 -46 39 C-43.9014321 33.09777777 -44.06831839 29.17239066 -45 23 C-44.01 22.67 -43.02 22.34 -42 22 C-42 21.34 -42 20.68 -42 20 C-39.19989847 16.88518965 -36.42161651 14.25847573 -32.25 13.5 C-30 14 -30 14 -27 16 C-26.44570312 15.6390625 -25.89140625 15.278125 -25.3203125 14.90625 C-24.59585938 14.4421875 -23.87140625 13.978125 -23.125 13.5 C-22.40570313 13.0359375 -21.68640625 12.571875 -20.9453125 12.09375 C-19 11 -19 11 -17 11 C-17.226875 10.2575 -17.45375 9.515 -17.6875 8.75 C-18 6 -18 6 -17.0625 3.8125 C-12.49241691 -0.20363362 -5.83551906 -0.46684152 0 0 Z " fill="#0C1528" transform="translate(95,330)"/>
<path d="M0 0 C1.24652344 0.05542969 2.49304688 0.11085938 3.77734375 0.16796875 C7.0625 0.8125 7.0625 0.8125 9.015625 2.640625 C10.60368359 5.93525401 9.8856202 8.33006839 9.0625 11.8125 C8.0725 13.2975 8.0725 13.2975 7.0625 14.8125 C7.4234375 15.28300781 7.784375 15.75351562 8.15625 16.23828125 C8.85234375 17.17220703 8.85234375 17.17220703 9.5625 18.125 C10.0265625 18.73988281 10.490625 19.35476563 10.96875 19.98828125 C12.0625 21.8125 12.0625 21.8125 12.0625 24.8125 C8.875 25.3125 8.875 25.3125 5.0625 24.8125 C2.91225764 22.38549378 1.47146506 19.72133109 0.0625 16.8125 C-1.90572886 18.78072886 -1.59998381 22.16058709 -1.9375 24.8125 C-3.9175 24.8125 -5.8975 24.8125 -7.9375 24.8125 C-9.22985715 19.89747242 -9.04885517 15.03959898 -9 10 C-8.99548828 9.11634766 -8.99097656 8.23269531 -8.98632812 7.32226562 C-8.97459866 5.15231441 -8.95666495 2.98239828 -8.9375 0.8125 C-5.93590035 -0.68829982 -3.32552653 -0.18189154 0 0 Z M-1.9375 5.8125 C-1.6075 7.4625 -1.2775 9.1125 -0.9375 10.8125 C0.3825 10.1525 1.7025 9.4925 3.0625 8.8125 C2.7325 7.8225 2.4025 6.8325 2.0625 5.8125 C0.7425 5.8125 -0.5775 5.8125 -1.9375 5.8125 Z " fill="#0B101E" transform="translate(81.9375,472.1875)"/>
<path d="M0 0 C10.83984375 -0.09765625 10.83984375 -0.09765625 14 0 C15 1 15 1 15.0625 3.5625 C15.041875 4.366875 15.02125 5.17125 15 6 C12.36 6 9.72 6 7 6 C7.33 6.99 7.66 7.98 8 9 C11.51190809 10.22969878 11.51190809 10.22969878 15 11 C15 12.65 15 14.3 15 16 C11.71303767 16.79953138 10.28976808 17.09658936 7 16 C7 16.99 7 17.98 7 19 C9.97 19 12.94 19 16 19 C16 20.98 16 22.96 16 25 C10.72 25 5.44 25 0 25 C0 16.75 0 8.5 0 0 Z " fill="#0B0E1F" transform="translate(52,472)"/>
<path d="M0 0 C0.66 0.33 1.32 0.66 2 1 C2 3.31 2 5.62 2 8 C1.34 8 0.68 8 0 8 C0 7.34 0 6.68 0 6 C-1.98 6.33 -3.96 6.66 -6 7 C-5.443125 7.4125 -4.88625 7.825 -4.3125 8.25 C-3.1678125 9.11625 -3.1678125 9.11625 -2 10 C-1.0925 10.556875 -0.185 11.11375 0.75 11.6875 C3.19406379 14.19945445 3.39780723 14.73204614 3.5625 18.0625 C3 22 3 22 1.5 23.9375 C-3.07512827 25.88192951 -7.21584928 26.5575471 -12 25.0625 C-12.99 24.5365625 -12.99 24.5365625 -14 24 C-14 22.02 -14 20.04 -14 18 C-10.7 18.33 -7.4 18.66 -4 19 C-4 18.34 -4 17.68 -4 17 C-4.9075 16.731875 -5.815 16.46375 -6.75 16.1875 C-12.04878049 14.25140713 -12.04878049 14.25140713 -14 12 C-14.67568074 8.37106297 -14.79310974 5.17078105 -12.6875 2.0625 C-8.54493627 -0.54578086 -4.71542323 -0.14969598 0 0 Z " fill="#0E1120" transform="translate(43,472)"/>
<path d="M0 0 C0 1.65 0 3.3 0 5 C-2.64 5 -5.28 5 -8 5 C-8 6.32 -8 7.64 -8 9 C-7.01 9 -6.02 9 -5 9 C-4.67 8.34 -4.34 7.68 -4 7 C-2.68 7.66 -1.36 8.32 0 9 C0.08226668 12.04386724 -0.02391783 14.07175348 -1 17 C-1.99 16.67 -2.98 16.34 -4 16 C-5.33106622 15.65772583 -6.66400079 15.32248257 -8 15 C-8 15.99 -8 16.98 -8 18 C-5.36 18 -2.72 18 0 18 C0.38218767 19.65614657 0.71395102 21.32457024 1 23 C0 24 0 24 -3.37890625 24.09765625 C-4.77347492 24.09191424 -6.16801597 24.07890228 -7.5625 24.0625 C-10.016875 24.041875 -12.47125 24.02125 -15 24 C-15 16.08 -15 8.16 -15 0 C-3.375 -1.125 -3.375 -1.125 0 0 Z " fill="#0F1525" transform="translate(178,473)"/>
<path d="M0 0 C1.32 4.29 2.64 8.58 4 13 C5.32 8.71 6.64 4.42 8 0 C9.98 -0.33 11.96 -0.66 14 -1 C14.66 -0.34 15.32 0.32 16 1 C14.88477562 4.46156377 13.75617885 7.91862018 12.625 11.375 C12.30789062 12.35984375 11.99078125 13.3446875 11.6640625 14.359375 C11.3546875 15.30039062 11.0453125 16.24140625 10.7265625 17.2109375 C10.30238037 18.51490479 10.30238037 18.51490479 9.86962891 19.84521484 C9 22 9 22 7 24 C4.69 24 2.38 24 0 24 C-2.64 16.08 -5.28 8.16 -8 0 C-6 -1 -6 -1 0 0 Z " fill="#0F1423" transform="translate(104,473)"/>
<path d="M0 0 C0 1.98 0 3.96 0 6 C-1.98567708 5.93489583 -3.97135417 5.86979167 -5.95703125 5.8046875 C-8.31359719 5.86745538 -8.31359719 5.86745538 -11 8 C-11.47114738 10.7427508 -11.17805784 13.19558897 -11 16 C-9.96593327 17.25949049 -9.96593327 17.25949049 -7.71484375 17.09765625 C-6.79832031 17.08605469 -5.88179687 17.07445312 -4.9375 17.0625 C-4.01839844 17.05347656 -3.09929687 17.04445313 -2.15234375 17.03515625 C-1.44207031 17.02355469 -0.73179687 17.01195312 0 17 C0 18.98 0 20.96 0 23 C-4.75690662 25.19549536 -8.02593993 25.05320591 -12.9453125 23.76953125 C-15.7272253 22.72763615 -17.26072893 21.39149772 -19 19 C-20.24049993 15.27850021 -20.54809207 11.86587605 -20 8 C-15.97826087 0.76086957 -15.97826087 0.76086957 -12.375 -0.625 C-8.3489414 -1.26069346 -3.70284803 -1.85142401 0 0 Z " fill="#0D1322" transform="translate(157,473)"/>
<path d="M0 0 C1.65 0.33 3.3 0.66 5 1 C5 8.92 5 16.84 5 25 C3.02 25 1.04 25 -1 25 C-1.02886984 21.02084841 -1.04675406 17.04172347 -1.0625 13.0625 C-1.07087891 11.92619141 -1.07925781 10.78988281 -1.08789062 9.61914062 C-1.09111328 8.53955078 -1.09433594 7.45996094 -1.09765625 6.34765625 C-1.10289307 5.34742432 -1.10812988 4.34719238 -1.11352539 3.31665039 C-1 1 -1 1 0 0 Z " fill="#0D131F" transform="translate(126,472)"/>
<path d="M0 0 C0.99 0 1.98 0 3 0 C2.26119329 6.64926042 -5.185049 10.96210161 -10 15 C-10.66 14.67 -11.32 14.34 -12 14 C-12 13.01 -12 12.02 -12 11 C-11.01 11 -10.02 11 -9 11 C-9 10.34 -9 9.68 -9 9 C-8.34 9 -7.68 9 -7 9 C-6.67 8.01 -6.34 7.02 -6 6 C-5.34 6 -4.68 6 -4 6 C-3.566875 5.071875 -3.566875 5.071875 -3.125 4.125 C-2 2 -2 2 0 0 Z " fill="#192134" transform="translate(79,434)"/>
<path d="M0 0 C-0.3125 1.9375 -0.3125 1.9375 -1 4 C-1.99 4.33 -2.98 4.66 -4 5 C-5.0064275 6.66279327 -6.00585407 8.32983484 -7 10 C-10.4137931 13 -10.4137931 13 -13 13 C-13 13.66 -13 14.32 -13 15 C-13.66 15 -14.32 15 -15 15 C-14.02433965 8.41429262 -8.79894301 4.87769882 -3.8046875 1.13671875 C-2 0 -2 0 0 0 Z " fill="#182236" transform="translate(100,338)"/>
<path d="M0 0 C-1 1 -2 2 -3 3 C-3.680625 3.721875 -4.36125 4.44375 -5.0625 5.1875 C-7 7 -7 7 -9 7 C-9.33 7.99 -9.66 8.98 -10 10 C-10.66 10 -11.32 10 -12 10 C-12.28875 10.639375 -12.5775 11.27875 -12.875 11.9375 C-14 14 -14 14 -16 15 C-16 13.35 -16 11.7 -16 10 C-15.01 9.67 -14.02 9.34 -13 9 C-12.690625 8.360625 -12.38125 7.72125 -12.0625 7.0625 C-10.7657662 4.54531085 -9.5778263 4.03113052 -7 3 C-7 2.34 -7 1.68 -7 1 C-4.53721199 -0.231394 -2.7204945 -0.07159196 0 0 Z " fill="#192133" transform="translate(161,397)"/>
<path d="M0 0 C0.99 0.33 1.98 0.66 3 1 C2.29875 1.680625 1.5975 2.36125 0.875 3.0625 C-1.81438065 5.72895979 -4.19808964 8.59762496 -6.5703125 11.546875 C-8 13 -8 13 -11 14 C-11 12.68 -11 11.36 -11 10 C-10.01 9.67 -9.02 9.34 -8 9 C-6.79117904 6.99983534 -6.79117904 6.99983534 -6 5 C-5.34 5 -4.68 5 -4 5 C-3.71125 4.360625 -3.4225 3.72125 -3.125 3.0625 C-2 1 -2 1 0 0 Z " fill="#192236" transform="translate(108,406)"/>
<path d="M0 0 C0.8971875 0.309375 0.8971875 0.309375 1.8125 0.625 C0.8125 1.625 -0.1875 2.625 -1.1875 3.625 C-2.4559375 4.9553125 -2.4559375 4.9553125 -3.75 6.3125 C-6.1875 8.625 -6.1875 8.625 -8.1875 8.625 C-8.1875 9.615 -8.1875 10.605 -8.1875 11.625 C-9.8375 11.955 -11.4875 12.285 -13.1875 12.625 C-13.1875 11.965 -13.1875 11.305 -13.1875 10.625 C-12.5275 10.625 -11.8675 10.625 -11.1875 10.625 C-10.94 10.068125 -10.6925 9.51125 -10.4375 8.9375 C-8.29977795 4.9827142 -5.10210629 -0.87464679 0 0 Z " fill="#1A2337" transform="translate(70.1875,367.375)"/>
<path d="M0 0 C0.99 0.66 1.98 1.32 3 2 C1.7934375 2.37125 1.7934375 2.37125 0.5625 2.75 C-0.283125 3.1625 -1.12875 3.575 -2 4 C-2.34342449 5.33076989 -2.67619874 6.66431979 -3 8 C-5.375 9.5625 -5.375 9.5625 -8 11 C-9.75149165 12.58245275 -9.75149165 12.58245275 -11 14 C-10.84953094 9.03452097 -8.16908414 6.79416372 -4.7890625 3.55078125 C-3 2 -3 2 0 0 Z " fill="#1B2237" transform="translate(61,414)"/>
<path d="M0 0 C0 1.98 0 3.96 0 6 C-1.97746603 6.73080266 -3.98072489 7.39421747 -6 8 C-6.66 7.67 -7.32 7.34 -8 7 C-7.01 6.01 -6.02 5.02 -5 4 C-7.475 3.01 -7.475 3.01 -10 2 C-10 1.67 -10 1.34 -10 1 C-2.25 0 -2.25 0 0 0 Z " fill="#0B101B" transform="translate(157,490)"/>
<path d="M0 0 C3.375 -0.1875 3.375 -0.1875 7 0 C7.66 0.99 8.32 1.98 9 3 C5.79619983 5.13586678 4.98060033 5.23132175 1.3125 5.125 C0.10013672 5.09792969 0.10013672 5.09792969 -1.13671875 5.0703125 C-2.05904297 5.03550781 -2.05904297 5.03550781 -3 5 C-3 4.34 -3 3.68 -3 3 C-1.68 2.67 -0.36 2.34 1 2 C0.67 1.34 0.34 0.68 0 0 Z " fill="#141A2B" transform="translate(58,492)"/>
<path d="M0 0 C2.475 0.99 2.475 0.99 5 2 C5.08226668 5.04386724 4.97608217 7.07175348 4 10 C1 9 1 9 -2 7 C-1.01 6.01 -0.02 5.02 1 4 C-0.65 3.67 -2.3 3.34 -4 3 C-2.68 2.67 -1.36 2.34 0 2 C0 1.34 0 0.68 0 0 Z " fill="#090A15" transform="translate(173,480)"/>
<path d="M0 0 C-0.66 0.66 -1.32 1.32 -2 2 C-2.33 1.67 -2.66 1.34 -3 1 C-5.12038635 3.61514317 -7.13091744 6.19637616 -9 9 C-10.31223496 5.06329512 -9.24296256 2.87511856 -8 -1 C-3.375 -2.25 -3.375 -2.25 0 0 Z " fill="#0D101E" transform="translate(120,474)"/>
<path d="M0 0 C-1.23367942 3.70103827 -3.26809601 5.26809601 -6 8 C-6.33 8.99 -6.66 9.98 -7 11 C-8.65 11 -10.3 11 -12 11 C-12 10.34 -12 9.68 -12 9 C-11.34 9 -10.68 9 -10 9 C-9.6596875 8.1646875 -9.6596875 8.1646875 -9.3125 7.3125 C-7.05803603 3.3403492 -4.7524671 0 0 0 Z " fill="#182234" transform="translate(102,453)"/>
<path d="M0 0 C5.01441603 0.151952 7.33354746 2.92701329 10.64453125 6.30859375 C12 8 12 8 12 10 C6.36423841 8.52980132 6.36423841 8.52980132 4.625 6 C4 4 4 4 4 2 C3.01 2.33 2.02 2.66 1 3 C0.67 2.01 0.34 1.02 0 0 Z " fill="#161A2A" transform="translate(144,344)"/>
<path d="M0 0 C0.33 1.98 0.66 3.96 1 6 C0.01 4.68 -0.98 3.36 -2 2 C-2.33 2.66 -2.66 3.32 -3 4 C-3.66 4 -4.32 4 -5 4 C-5.33 4.99 -5.66 5.98 -6 7 C-6.66 4.69 -7.32 2.38 -8 0 C-5.13822943 -1.43088528 -3.06624227 -0.59991697 0 0 Z " fill="#090B17" transform="translate(104,473)"/>
<path d="M0 0 C0.66 0.33 1.32 0.66 2 1 C2 1.33 2 1.66 2 2 C4.64 2.33 7.28 2.66 10 3 C10 3.33 10 3.66 10 4 C9.24074219 4.03738281 8.48148438 4.07476562 7.69921875 4.11328125 C6.20841797 4.21189453 6.20841797 4.21189453 4.6875 4.3125 C3.20830078 4.39951172 3.20830078 4.39951172 1.69921875 4.48828125 C-1.24384457 5.04622813 -2.18182999 5.68540132 -4 8 C-3.50168276 4.31245243 -2.89932357 2.39509338 0 0 Z " fill="#080D15" transform="translate(99,456)"/>
<path d="M0 0 C0.33 0.99 0.66 1.98 1 3 C3.97 3 6.94 3 10 3 C10 4.98 10 6.96 10 9 C8.68 8.67 7.36 8.34 6 8 C6.66 7.34 7.32 6.68 8 6 C6.50256881 4.50256881 5.01175761 4.66797307 2.9375 4.4375 C1.638125 4.293125 0.33875 4.14875 -1 4 C-0.67 2.68 -0.34 1.36 0 0 Z " fill="#040915" transform="translate(58,488)"/>
<path d="M0 0 C1.32 0.33 2.64 0.66 4 1 C4 4.93878291 3.2432943 8.2701171 2 12 C0.40861915 7.82262526 -0.21278058 4.46839215 0 0 Z " fill="#0A101B" transform="translate(81,398)"/>
<path d="M0 0 C0.33 0.99 0.66 1.98 1 3 C3.64 3 6.28 3 9 3 C9.33 4.65 9.66 6.3 10 8 C9.67 7.34 9.34 6.68 9 6 C6.87423218 5.53348793 6.87423218 5.53348793 4.4375 5.375 C3.61121094 5.30023438 2.78492188 5.22546875 1.93359375 5.1484375 C1.29550781 5.09945313 0.65742188 5.05046875 0 5 C0 3.35 0 1.7 0 0 Z " fill="#070B14" transform="translate(169,488)"/>
<path d="M0 0 C2.625 0.375 2.625 0.375 5 1 C5 2.32 5 3.64 5 5 C0.25 4.25 0.25 4.25 -2 2 C-1.34 1.34 -0.68 0.68 0 0 Z " fill="#161926" transform="translate(39,473)"/>
<path d="M0 0 C-0.56371414 3.26954202 -1.49962266 4.82575883 -4 7 C-4.99 6.67 -5.98 6.34 -7 6 C-7 4 -7 4 -5.1875 1.875 C-3 0 -3 0 0 0 Z " fill="#1A2334" transform="translate(130,425)"/>
<path d="M0 0 C1.32 1.32 2.64 2.64 4 4 C3.01 4.495 3.01 4.495 2 5 C1.53248212 7.35599235 1.53248212 7.35599235 1.375 10.0625 C1.30023438 10.98160156 1.22546875 11.90070313 1.1484375 12.84765625 C1.09945312 13.55792969 1.05046875 14.26820313 1 15 C0.67 15 0.34 15 0 15 C0 10.05 0 5.1 0 0 Z " fill="#151A2A" transform="translate(164,474)"/>
<path d="M0 0 C0.99 0.33 1.98 0.66 3 1 C3 2.65 3 4.3 3 6 C0.69 6 -1.62 6 -4 6 C-3.67 5.34 -3.34 4.68 -3 4 C-1.35 4.33 0.3 4.66 2 5 C2 4.34 2 3.68 2 3 C0.68 2.67 -0.64 2.34 -2 2 C-1.34 1.34 -0.68 0.68 0 0 Z " fill="#0D0F19" transform="translate(175,472)"/>
<path d="M0 0 C2.64 0.66 5.28 1.32 8 2 C6.02 2.99 6.02 2.99 4 4 C4 3.34 4 2.68 4 2 C3.34 2.66 2.68 3.32 2 4 C2.33 4.99 2.66 5.98 3 7 C2.01 6.67 1.02 6.34 0 6 C0 4.02 0 2.04 0 0 Z " fill="#0B0C16" transform="translate(29,490)"/>
<path d="M0 0 C2.3125 0.1875 2.3125 0.1875 4 1 C0.67692308 4.93846154 0.67692308 4.93846154 -2.75 5.25 C-3.4925 5.1675 -4.235 5.085 -5 5 C-2.75 2.4375 -2.75 2.4375 0 0 Z " fill="#192231" transform="translate(147,445)"/>
<path d="M0 0 C0.33 0 0.66 0 1 0 C1 3.63 1 7.26 1 11 C0.01 10.67 -0.98 10.34 -2 10 C-1.835 9.071875 -1.67 8.14375 -1.5 7.1875 C-0.92251612 4.04378647 -0.92251612 4.04378647 -1 1 C-0.67 0.67 -0.34 0.34 0 0 Z " fill="#0A0E1D" transform="translate(165,391)"/>
<path d="M0 0 C1.55078125 1.20703125 1.55078125 1.20703125 3 3 C2.85546875 5.26171875 2.85546875 5.26171875 2.1875 7.6875 C1.97480469 8.49574219 1.76210937 9.30398438 1.54296875 10.13671875 C1.27419922 11.05904297 1.27419922 11.05904297 1 12 C-1.14545455 3.43636364 -1.14545455 3.43636364 0 0 Z " fill="#090E19" transform="translate(169,405)"/>
<path d="M0 0 C2.31 0 4.62 0 7 0 C6.67 0.66 6.34 1.32 6 2 C4.33333333 2.33333333 2.66666667 2.66666667 1 3 C0.67 3.66 0.34 4.32 0 5 C-0.66 5 -1.32 5 -2 5 C-1.34 3.35 -0.68 1.7 0 0 Z " fill="#11141C" transform="translate(112,330)"/>
<path d="M0 0 C0 0.33 0 0.66 0 1 C-4.53701494 2.45184478 -8.18061476 3.23509196 -13 3 C-12 1 -12 1 -10.4375 0.375 C-6.93601819 -0.16368951 -3.54193167 -0.05903219 0 0 Z " fill="#060A14" transform="translate(155,472)"/>
<path d="M0 0 C1.65 0 3.3 0 5 0 C5.33 0.66 5.66 1.32 6 2 C4.68 1.67 3.36 1.34 2 1 C1.67 2.65 1.34 4.3 1 6 C0.01 5.01 -0.98 4.02 -2 3 C-1.34 2.34 -0.68 1.68 0 1 C0 0.67 0 0.34 0 0 Z " fill="#080E1D" transform="translate(84,473)"/>
<path d="" fill="#000000" transform="translate(0,0)"/>
<path d="" fill="#000000" transform="translate(0,0)"/>
<path d="" fill="#000000" transform="translate(0,0)"/>
</svg>
